<?xml version="1.0" encoding="UTF-8"?>
<svg xmlns="http://www.w3.org/2000/svg" xmlns:xlink="http://www.w3.org/1999/xlink" width="810pt" height="809.999993pt" viewBox="0 0 810 809.999993" version="1.2">
<defs>
<clipPath id="clip1">
  <path d="M 91.125 91.125 L 718.875 91.125 L 718.875 718.875 L 91.125 718.875 Z M 91.125 91.125 "/>
</clipPath>
</defs>
<g id="surface1">
<g clip-path="url(#clip1)" clip-rule="nonzero">
<path style=" stroke:none;fill-rule:nonzero;fill:rgb(23.529053%,28.239441%,32.548523%);fill-opacity:1;" d="M 436.710938 436.765625 L 436.710938 633.273438 L 373.289062 633.273438 L 373.289062 436.765625 L 176.78125 436.765625 L 176.78125 373.234375 L 373.289062 373.234375 L 373.289062 176.726562 L 436.710938 176.726562 L 436.710938 373.234375 L 633.21875 373.234375 L 633.21875 436.765625 Z M 405 91.125 C 231.675781 91.125 91.125 231.621094 91.125 405 C 91.125 578.324219 231.675781 718.875 405 718.875 C 578.378906 718.875 718.875 578.324219 718.875 405 C 718.875 231.621094 578.378906 91.125 405 91.125 "/>
</g>
</g>
</svg>
