<?xml version="1.0" encoding="UTF-8"?>
<svg xmlns="http://www.w3.org/2000/svg" xmlns:xlink="http://www.w3.org/1999/xlink" width="810pt" height="809.999993pt" viewBox="0 0 810 809.999993" version="1.2">
<defs>
<clipPath id="clip1">
  <path d="M 104 111.660156 L 704 111.660156 L 704 698.160156 L 104 698.160156 Z M 104 111.660156 "/>
</clipPath>
</defs>
<g id="surface1">
<g clip-path="url(#clip1)" clip-rule="nonzero">
<path style=" stroke:none;fill-rule:nonzero;fill:rgb(17.248535%,22.749329%,27.839661%);fill-opacity:1;" d="M 698.542969 238.941406 C 691.425781 230.507812 678.804688 229.453125 670.398438 236.5625 L 648.980469 254.640625 C 597.710938 169.078125 504.105469 111.660156 397.3125 111.660156 C 235.636719 111.660156 104.105469 243.203125 104.105469 404.894531 C 104.105469 566.582031 235.636719 698.125 397.3125 698.125 C 558.984375 698.125 690.515625 566.582031 690.515625 404.894531 C 690.515625 364.605469 682.34375 326.191406 667.578125 291.214844 L 696.164062 267.089844 C 704.589844 259.972656 705.660156 247.375 698.542969 238.941406 Z M 650.574219 404.894531 C 650.574219 544.550781 536.957031 658.179688 397.3125 658.179688 C 257.660156 658.179688 144.046875 544.550781 144.046875 404.894531 C 144.046875 265.230469 257.660156 151.609375 397.3125 151.609375 C 491.898438 151.609375 574.488281 203.769531 617.976562 280.8125 L 395.414062 468.664062 L 303.292969 393.417969 C 294.757812 386.449219 282.171875 387.710938 275.195312 396.253906 C 268.21875 404.796875 269.484375 417.375 278.027344 424.355469 L 382.992188 510.09375 C 386.667969 513.097656 391.148438 514.601562 395.625 514.601562 C 400.207031 514.601562 404.789062 513.03125 408.507812 509.890625 L 635.355469 318.414062 C 645.195312 345.410156 650.574219 374.535156 650.574219 404.894531 Z M 650.574219 404.894531 "/>
</g>
</g>
</svg>
