<?xml version="1.0" encoding="UTF-8"?>
<svg xmlns="http://www.w3.org/2000/svg" xmlns:xlink="http://www.w3.org/1999/xlink" width="810pt" height="809.999993pt" viewBox="0 0 810 809.999993" version="1.2">
<defs>
<clipPath id="clip1">
  <path d="M 240 112.261719 L 570 112.261719 L 570 442 L 240 442 Z M 240 112.261719 "/>
</clipPath>
<clipPath id="clip2">
  <path d="M 142.589844 430 L 667.554688 430 L 667.554688 698.011719 L 142.589844 698.011719 Z M 142.589844 430 "/>
</clipPath>
</defs>
<g id="surface1">
<g clip-path="url(#clip1)" clip-rule="nonzero">
<path style=" stroke:none;fill-rule:nonzero;fill:rgb(17.248535%,22.749329%,27.839661%);fill-opacity:1;" d="M 569.664062 276.855469 C 569.664062 367.753906 495.976562 441.433594 405.0625 441.433594 C 314.167969 441.433594 240.460938 367.753906 240.460938 276.855469 C 240.460938 185.957031 314.167969 112.277344 405.0625 112.277344 C 495.976562 112.277344 569.664062 185.957031 569.664062 276.855469 "/>
</g>
<g clip-path="url(#clip2)" clip-rule="nonzero">
<path style=" stroke:none;fill-rule:nonzero;fill:rgb(17.248535%,22.749329%,27.839661%);fill-opacity:1;" d="M 405.0625 698.09375 C 507.546875 698.09375 600.320312 679.753906 667.554688 612.691406 C 667.554688 528.246094 588.21875 463.523438 511.597656 430.75 C 484.152344 457.695312 446.566406 474.320312 405.0625 474.320312 C 363.574219 474.320312 325.972656 457.695312 298.546875 430.75 C 221.910156 463.523438 142.589844 524.578125 142.589844 612.691406 C 209.808594 679.753906 302.59375 698.09375 405.0625 698.09375 "/>
</g>
</g>
</svg>
