<?xml version="1.0" encoding="UTF-8"?>
<svg xmlns="http://www.w3.org/2000/svg" xmlns:xlink="http://www.w3.org/1999/xlink" width="810pt" height="809.999993pt" viewBox="0 0 810 809.999993" version="1.2">
<defs>
<clipPath id="clip1">
  <path d="M 54.105469 65.070312 L 756.105469 65.070312 L 756.105469 744.570312 L 54.105469 744.570312 Z M 54.105469 65.070312 "/>
</clipPath>
</defs>
<g id="surface1">
<g clip-path="url(#clip1)" clip-rule="nonzero">
<path style=" stroke:none;fill-rule:nonzero;fill:rgb(17.248535%,22.749329%,27.839661%);fill-opacity:1;" d="M 734.804688 441.988281 L 611.304688 441.988281 L 611.304688 86.296875 C 611.304688 74.570312 601.78125 65.0625 590.050781 65.0625 L 220.753906 65.0625 C 209.015625 65.0625 199.5 74.570312 199.5 86.296875 L 199.5 441.988281 L 76 441.988281 C 64.261719 441.988281 54.746094 451.492188 54.746094 463.222656 L 54.746094 521.617188 C 54.746094 533.34375 64.261719 542.851562 76 542.851562 L 81.3125 542.851562 L 81.3125 723.34375 C 81.3125 735.070312 90.828125 744.578125 102.566406 744.578125 L 708.246094 744.578125 C 719.976562 744.578125 729.496094 735.070312 729.496094 723.34375 L 729.496094 542.851562 L 734.8125 542.851562 C 746.542969 542.851562 756.0625 533.34375 756.0625 521.617188 L 756.0625 463.222656 C 756.054688 451.492188 746.535156 441.988281 734.804688 441.988281 Z M 713.550781 484.457031 L 713.550781 500.382812 L 611.304688 500.382812 L 611.304688 484.457031 Z M 568.800781 107.53125 L 568.800781 127.003906 L 242.003906 127.003906 L 242.003906 107.53125 Z M 97.25 484.457031 L 199.507812 484.457031 L 199.507812 500.382812 L 97.25 500.382812 Z M 123.816406 542.851562 L 199.507812 542.851562 L 199.507812 702.109375 L 123.816406 702.109375 Z M 452.332031 702.109375 L 358.464844 702.109375 L 358.464844 589.855469 C 358.464844 564 379.515625 542.964844 405.394531 542.964844 C 431.273438 542.964844 452.332031 564 452.332031 589.855469 Z M 494.835938 702.109375 L 494.835938 589.855469 C 494.835938 540.578125 454.714844 500.496094 405.394531 500.496094 C 356.078125 500.496094 315.960938 540.578125 315.960938 589.855469 L 315.960938 702.109375 L 242.003906 702.109375 L 242.003906 169.472656 L 568.800781 169.472656 L 568.800781 702.109375 Z M 686.988281 702.109375 L 611.304688 702.109375 L 611.304688 542.851562 L 686.988281 542.851562 Z M 686.988281 702.109375 "/>
</g>
<path style=" stroke:none;fill-rule:nonzero;fill:rgb(17.248535%,22.749329%,27.839661%);fill-opacity:1;" d="M 284.300781 212.066406 L 326.804688 212.066406 L 326.804688 289.925781 L 284.300781 289.925781 Z M 284.300781 212.066406 "/>
<path style=" stroke:none;fill-rule:nonzero;fill:rgb(17.248535%,22.749329%,27.839661%);fill-opacity:1;" d="M 384.144531 212.066406 L 426.652344 212.066406 L 426.652344 289.925781 L 384.144531 289.925781 Z M 384.144531 212.066406 "/>
<path style=" stroke:none;fill-rule:nonzero;fill:rgb(17.248535%,22.749329%,27.839661%);fill-opacity:1;" d="M 483.996094 212.066406 L 526.5 212.066406 L 526.5 289.925781 L 483.996094 289.925781 Z M 483.996094 212.066406 "/>
<path style=" stroke:none;fill-rule:nonzero;fill:rgb(17.248535%,22.749329%,27.839661%);fill-opacity:1;" d="M 284.300781 355.988281 L 326.804688 355.988281 L 326.804688 433.847656 L 284.300781 433.847656 Z M 284.300781 355.988281 "/>
<path style=" stroke:none;fill-rule:nonzero;fill:rgb(17.248535%,22.749329%,27.839661%);fill-opacity:1;" d="M 384.144531 355.988281 L 426.652344 355.988281 L 426.652344 433.847656 L 384.144531 433.847656 Z M 384.144531 355.988281 "/>
<path style=" stroke:none;fill-rule:nonzero;fill:rgb(17.248535%,22.749329%,27.839661%);fill-opacity:1;" d="M 483.996094 355.988281 L 526.5 355.988281 L 526.5 433.847656 L 483.996094 433.847656 Z M 483.996094 355.988281 "/>
</g>
</svg>
