<?xml version="1.0" encoding="UTF-8"?>
<svg xmlns="http://www.w3.org/2000/svg" xmlns:xlink="http://www.w3.org/1999/xlink" width="810pt" height="809.999993pt" viewBox="0 0 810 809.999993" version="1.2">
<defs>
<clipPath id="clip1">
  <path d="M 84.378906 84.378906 L 725.628906 84.378906 L 725.628906 725.628906 L 84.378906 725.628906 Z M 84.378906 84.378906 "/>
</clipPath>
</defs>
<g id="surface1">
<g clip-path="url(#clip1)" clip-rule="nonzero">
<path style=" stroke:none;fill-rule:nonzero;fill:rgb(23.529053%,28.239441%,32.548523%);fill-opacity:1;" d="M 607.726562 665.738281 C 606.757812 684.351562 591.445312 698.925781 572.828125 698.925781 L 237.175781 698.925781 C 218.558594 698.925781 203.246094 684.351562 202.335938 665.738281 L 178.59375 191.289062 C 194.476562 191.289062 620.535156 191.289062 631.410156 191.289062 Z M 270.761719 140.109375 C 271.21875 138.800781 271.390625 137.433594 271.390625 136.011719 C 271.390625 122.292969 282.605469 111.132812 296.324219 111.132812 L 513.679688 111.132812 C 527.398438 111.132812 538.613281 122.292969 538.613281 136.011719 C 538.613281 137.433594 538.785156 138.800781 539.242188 140.109375 L 547.039062 164.535156 L 262.964844 164.535156 Z M 712.25 164.535156 C 696.59375 164.535156 592.183594 164.535156 575.050781 164.535156 L 565.257812 133.792969 C 564.121094 106.351562 541.40625 84.378906 513.679688 84.378906 L 296.324219 84.378906 C 268.601562 84.378906 245.941406 106.351562 244.746094 133.792969 L 234.953125 164.535156 C 217.820312 164.535156 113.410156 164.535156 97.753906 164.535156 C 90.355469 164.535156 84.378906 170.511719 84.378906 177.910156 C 84.378906 185.253906 90.355469 191.289062 97.753906 191.289062 L 151.839844 191.289062 L 175.632812 667.046875 C 177.285156 699.953125 204.328125 725.628906 237.175781 725.628906 L 572.828125 725.628906 C 605.734375 725.628906 632.777344 699.953125 634.371094 667.046875 L 658.167969 191.289062 L 712.25 191.289062 C 719.648438 191.289062 725.628906 185.253906 725.628906 177.910156 C 725.628906 170.511719 719.648438 164.535156 712.25 164.535156 "/>
</g>
<path style=" stroke:none;fill-rule:nonzero;fill:rgb(23.529053%,28.239441%,32.548523%);fill-opacity:1;" d="M 284.769531 258.066406 C 277.367188 258.066406 271.390625 264.046875 271.390625 271.445312 L 271.390625 618.769531 C 271.390625 626.171875 277.367188 632.09375 284.769531 632.09375 C 292.167969 632.09375 298.144531 626.171875 298.144531 618.769531 L 298.144531 271.445312 C 298.144531 264.046875 292.167969 258.066406 284.769531 258.066406 "/>
<path style=" stroke:none;fill-rule:nonzero;fill:rgb(23.529053%,28.239441%,32.548523%);fill-opacity:1;" d="M 405.003906 258.066406 C 397.601562 258.066406 391.625 264.046875 391.625 271.445312 L 391.625 618.769531 C 391.625 626.171875 397.601562 632.09375 405.003906 632.09375 C 412.402344 632.09375 418.378906 626.171875 418.378906 618.769531 L 418.378906 271.445312 C 418.378906 264.046875 412.402344 258.066406 405.003906 258.066406 "/>
<path style=" stroke:none;fill-rule:nonzero;fill:rgb(23.529053%,28.239441%,32.548523%);fill-opacity:1;" d="M 525.238281 258.066406 C 517.835938 258.066406 511.859375 264.046875 511.859375 271.445312 L 511.859375 618.769531 C 511.859375 626.171875 517.835938 632.09375 525.238281 632.09375 C 532.636719 632.09375 538.613281 626.171875 538.613281 618.769531 L 538.613281 271.445312 C 538.613281 264.046875 532.636719 258.066406 525.238281 258.066406 "/>
</g>
</svg>
