<?xml version="1.0" encoding="UTF-8"?>
<svg xmlns="http://www.w3.org/2000/svg" xmlns:xlink="http://www.w3.org/1999/xlink" width="810pt" height="809.999993pt" viewBox="0 0 810 809.999993" version="1.2">
<defs>
<clipPath id="clip1">
  <path d="M 274 168.855469 L 649.957031 168.855469 L 649.957031 641.355469 L 274 641.355469 Z M 274 168.855469 "/>
</clipPath>
</defs>
<g id="surface1">
<path style=" stroke:none;fill-rule:nonzero;fill:rgb(17.248535%,22.749329%,27.839661%);fill-opacity:1;" d="M 404.695312 785.589844 C 303 785.589844 207.246094 746.007812 135.390625 674 C 63.382812 602.144531 23.800781 506.386719 23.800781 404.695312 C 23.800781 303 63.382812 207.246094 135.390625 135.390625 C 207.246094 63.382812 303 23.800781 404.695312 23.800781 C 506.386719 23.800781 602.144531 63.382812 674 135.390625 C 746.007812 207.398438 785.589844 303 785.589844 404.695312 C 785.589844 506.386719 746.007812 602.144531 674 674 C 602.144531 746.007812 506.386719 785.589844 404.695312 785.589844 Z M 404.695312 46.636719 C 309.089844 46.636719 219.121094 83.933594 151.527344 151.527344 C 83.933594 219.121094 46.636719 309.089844 46.636719 404.695312 C 46.636719 500.300781 83.933594 590.269531 151.527344 657.863281 C 219.121094 725.457031 309.089844 762.753906 404.695312 762.753906 C 500.300781 762.753906 590.269531 725.457031 657.863281 657.863281 C 725.457031 590.269531 762.753906 500.300781 762.753906 404.695312 C 762.753906 309.089844 725.457031 219.121094 657.863281 151.527344 C 590.269531 83.933594 500.300781 46.636719 404.695312 46.636719 Z M 404.695312 46.636719 "/>
<g clip-path="url(#clip1)" clip-rule="nonzero">
<path style=" stroke:none;fill-rule:evenodd;fill:rgb(17.248535%,22.749329%,27.839661%);fill-opacity:1;" d="M 323.410156 592.199219 L 600.769531 592.199219 L 600.769531 218.046875 L 323.410156 218.046875 L 323.410156 290.21875 C 323.410156 303.792969 312.398438 314.808594 298.820312 314.808594 C 285.242188 314.808594 274.226562 303.792969 274.226562 290.21875 L 274.226562 193.453125 C 274.226562 179.878906 285.242188 168.855469 298.820312 168.855469 L 625.359375 168.855469 C 638.941406 168.855469 649.957031 179.878906 649.957031 193.453125 L 649.957031 616.789062 C 649.957031 630.367188 638.941406 641.382812 625.359375 641.382812 L 298.820312 641.382812 C 285.242188 641.382812 274.226562 630.367188 274.226562 616.789062 L 274.226562 520.027344 C 274.226562 506.449219 285.242188 495.433594 298.820312 495.433594 C 312.398438 495.433594 323.410156 506.449219 323.410156 520.027344 L 323.410156 592.199219 "/>
</g>
<path style=" stroke:none;fill-rule:evenodd;fill:rgb(17.248535%,22.749329%,27.839661%);fill-opacity:1;" d="M 239.8125 274.769531 L 153.980469 360.613281 C 153.691406 360.90625 153.386719 361.175781 153.078125 361.445312 L 109.40625 405.121094 L 153.09375 448.808594 C 153.398438 449.074219 153.695312 449.34375 153.980469 449.628906 L 239.820312 535.476562 L 239.820312 452.007812 L 422.554688 452.007812 L 422.554688 358.230469 L 239.820312 358.230469 L 239.8125 274.769531 "/>
</g>
</svg>
