<?xml version="1.0" encoding="UTF-8"?>
<svg xmlns="http://www.w3.org/2000/svg" xmlns:xlink="http://www.w3.org/1999/xlink" width="810pt" height="809.999993pt" viewBox="0 0 810 809.999993" version="1.2">
<defs>
<clipPath id="clip1">
  <path d="M 66.042969 524 L 140 524 L 140 744.042969 L 66.042969 744.042969 Z M 66.042969 524 "/>
</clipPath>
<clipPath id="clip2">
  <path d="M 66.042969 586 L 286 586 L 286 744.042969 L 66.042969 744.042969 Z M 66.042969 586 "/>
</clipPath>
</defs>
<g id="surface1">
<rect x="0" y="0" width="810" height="809.999993" style="fill:rgb(100%,100%,100%);fill-opacity:1;stroke:none;"/>
<rect x="0" y="0" width="810" height="809.999993" style="fill:rgb(100%,100%,100%);fill-opacity:1;stroke:none;"/>
<g clip-path="url(#clip1)" clip-rule="nonzero">
<path style=" stroke:none;fill-rule:nonzero;fill:rgb(23.529053%,28.239441%,32.548523%);fill-opacity:1;" d="M 120.429688 542.859375 C 117.261719 536.523438 114.621094 531.773438 107.757812 524.378906 L 66.042969 744.042969 L 139.96875 570.847656 C 128.878906 559.230469 124.125 550.253906 120.429688 542.859375 Z M 120.429688 542.859375 "/>
</g>
<g clip-path="url(#clip2)" clip-rule="nonzero">
<path style=" stroke:none;fill-rule:nonzero;fill:rgb(23.529053%,28.239441%,32.548523%);fill-opacity:1;" d="M 267.226562 689.65625 C 259.304688 685.429688 249.273438 680.679688 235.015625 666.421875 C 221.285156 652.691406 216.003906 642.660156 211.78125 634.210938 C 208.085938 627.347656 205.445312 622.066406 196.46875 613.089844 C 187.492188 604.113281 182.210938 601.472656 175.347656 597.777344 C 170.066406 595.136719 164.257812 591.96875 157.394531 586.6875 L 66.042969 744.042969 L 285.707031 702.328125 C 278.3125 695.464844 273.035156 692.824219 267.226562 689.65625 Z M 267.226562 689.65625 "/>
</g>
<path style=" stroke:none;fill-rule:nonzero;fill:rgb(23.529053%,28.239441%,32.548523%);fill-opacity:1;" d="M 169.539062 512.761719 C 171.648438 516.988281 173.761719 521.210938 177.457031 525.433594 L 480.023438 222.871094 C 471.574219 213.363281 467.878906 205.445312 464.710938 199.109375 C 461.542969 192.242188 458.375 186.964844 449.925781 178.515625 L 146.832031 481.609375 C 160.035156 494.808594 165.3125 504.839844 169.539062 512.761719 Z M 169.539062 512.761719 "/>
<path style=" stroke:none;fill-rule:nonzero;fill:rgb(23.529053%,28.239441%,32.548523%);fill-opacity:1;" d="M 297.324219 640.546875 C 305.242188 644.773438 315.277344 649.523438 328.476562 663.253906 L 631.042969 360.6875 C 622.59375 352.238281 617.3125 349.597656 610.449219 345.902344 C 604.113281 342.734375 596.191406 338.511719 586.6875 330.589844 L 284.648438 633.15625 C 288.875 636.324219 293.097656 638.433594 297.324219 640.546875 Z M 297.324219 640.546875 "/>
<path style=" stroke:none;fill-rule:nonzero;fill:rgb(23.529053%,28.239441%,32.548523%);fill-opacity:1;" d="M 735.59375 226.039062 L 584.046875 74.492188 C 575.597656 66.042969 561.871094 66.042969 553.949219 74.492188 L 490.585938 137.855469 C 503.785156 151.585938 509.066406 161.089844 512.761719 169.011719 C 516.457031 175.875 519.097656 181.15625 528.074219 190.132812 C 537.050781 199.109375 542.332031 201.75 549.195312 205.445312 C 557.117188 209.667969 567.148438 214.421875 581.40625 228.679688 C 595.136719 242.40625 600.417969 252.441406 604.640625 260.886719 C 608.335938 267.753906 610.976562 273.035156 619.953125 282.011719 C 628.929688 290.988281 634.210938 293.625 641.074219 297.324219 C 648.996094 301.546875 659.027344 306.300781 672.230469 320.027344 L 735.59375 256.664062 C 744.042969 247.6875 744.042969 234.488281 735.59375 226.039062 Z M 735.59375 226.039062 "/>
<path style=" stroke:none;fill-rule:nonzero;fill:rgb(23.529053%,28.239441%,32.548523%);fill-opacity:1;" d="M 205.972656 549.195312 C 213.894531 553.421875 223.925781 558.171875 238.183594 572.429688 C 251.910156 586.160156 257.191406 596.191406 261.417969 604.640625 C 264.054688 609.394531 266.167969 613.617188 269.863281 618.371094 L 572.429688 315.804688 C 563.453125 305.773438 559.757812 297.851562 556.0625 290.988281 C 552.363281 284.121094 549.726562 278.839844 540.75 269.863281 C 531.773438 260.886719 526.492188 258.25 519.625 254.550781 C 513.289062 251.382812 505.371094 247.160156 494.808594 238.183594 L 192.242188 540.75 C 196.996094 544.972656 201.21875 546.558594 205.972656 549.195312 Z M 205.972656 549.195312 "/>
</g>
</svg>
