<?xml version="1.0" encoding="UTF-8"?>
<svg xmlns="http://www.w3.org/2000/svg" xmlns:xlink="http://www.w3.org/1999/xlink" width="810pt" height="809.999993pt" viewBox="0 0 810 809.999993" version="1.2">
<defs>
<clipPath id="clip1">
  <path d="M 59 61.226562 L 554 61.226562 L 554 556 L 59 556 Z M 59 61.226562 "/>
</clipPath>
<clipPath id="clip2">
  <path d="M 533 535 L 748 535 L 748 748.976562 L 533 748.976562 Z M 533 535 "/>
</clipPath>
</defs>
<g id="surface1">
<g clip-path="url(#clip1)" clip-rule="nonzero">
<path style=" stroke:none;fill-rule:nonzero;fill:rgb(23.529053%,28.239441%,32.548523%);fill-opacity:1;" d="M 306.429688 61.269531 C 170.121094 61.269531 59.238281 172.144531 59.238281 308.445312 C 59.238281 444.742188 170.121094 555.617188 306.429688 555.617188 C 442.738281 555.617188 553.621094 444.742188 553.621094 308.445312 C 553.621094 172.144531 442.738281 61.269531 306.429688 61.269531 Z M 306.429688 516.773438 C 191.550781 516.773438 98.085938 423.316406 98.085938 308.445312 C 98.085938 193.574219 191.550781 100.113281 306.429688 100.113281 C 421.308594 100.113281 514.773438 193.574219 514.773438 308.445312 C 514.773438 423.316406 421.308594 516.773438 306.429688 516.773438 Z M 306.429688 516.773438 "/>
</g>
<path style=" stroke:none;fill-rule:nonzero;fill:rgb(23.529053%,28.239441%,32.548523%);fill-opacity:1;" d="M 554.074219 521.4375 L 510.445312 477.808594 C 499.605469 490.84375 487.546875 502.824219 474.4375 513.578125 L 518.753906 557.886719 C 521.5625 549.832031 526.175781 542.269531 532.605469 535.84375 L 533.84375 534.605469 C 539.683594 528.765625 546.566406 524.328125 554.074219 521.4375 Z M 554.074219 521.4375 "/>
<g clip-path="url(#clip2)" clip-rule="nonzero">
<path style=" stroke:none;fill-rule:nonzero;fill:rgb(23.529053%,28.239441%,32.548523%);fill-opacity:1;" d="M 603.839844 547.398438 C 596.238281 539.800781 586.082031 535.613281 575.238281 535.613281 C 564.394531 535.613281 554.238281 539.800781 546.636719 547.398438 L 545.398438 548.636719 C 537.796875 556.238281 533.613281 566.394531 533.613281 577.234375 C 533.613281 588.078125 537.796875 598.234375 545.398438 605.835938 L 676.871094 737.296875 C 684.472656 744.898438 694.628906 749.082031 705.472656 749.082031 C 716.3125 749.082031 726.472656 744.898438 734.074219 737.296875 L 735.3125 736.058594 C 751.082031 720.289062 751.082031 694.628906 735.3125 678.859375 Z M 603.839844 547.398438 "/>
</g>
</g>
</svg>
